<mxfile host="app.diagrams.net" modified="2024-01-19T11:07:15.364Z" agent="Mozilla/5.0 (Windows NT 10.0; Win64; x64; rv:121.0) Gecko/20100101 Firefox/121.0" etag="ToD0sNOexT7dOMnOCa5m" version="22.1.21" type="github">
  <diagram name="Pagina-1" id="SyTUGLyCFgA7R8bTq5KT">
    <mxGraphModel dx="1152" dy="546" grid="1" gridSize="10" guides="1" tooltips="1" connect="1" arrows="1" fold="1" page="1" pageScale="1" pageWidth="827" pageHeight="1169" math="0" shadow="0">
      <root>
        <mxCell id="0" />
        <mxCell id="1" parent="0" />
        <mxCell id="s9bki_SefsJjPB8xhxOz-1" style="edgeStyle=orthogonalEdgeStyle;rounded=0;orthogonalLoop=1;jettySize=auto;html=1;entryX=0;entryY=0.5;entryDx=0;entryDy=0;" edge="1" parent="1" source="s9bki_SefsJjPB8xhxOz-2" target="s9bki_SefsJjPB8xhxOz-5">
          <mxGeometry relative="1" as="geometry" />
        </mxCell>
        <mxCell id="s9bki_SefsJjPB8xhxOz-2" value="Start PC" style="rounded=0;whiteSpace=wrap;html=1;" vertex="1" parent="1">
          <mxGeometry x="160" y="260" width="80" height="40" as="geometry" />
        </mxCell>
        <mxCell id="s9bki_SefsJjPB8xhxOz-3" value="&lt;b&gt;&lt;font style=&quot;font-size: 14px;&quot;&gt;Use case 2&lt;/font&gt;&lt;/b&gt;" style="text;html=1;strokeColor=none;fillColor=none;align=left;verticalAlign=middle;whiteSpace=wrap;rounded=0;" vertex="1" parent="1">
          <mxGeometry x="40" y="40" width="120" height="30" as="geometry" />
        </mxCell>
        <mxCell id="s9bki_SefsJjPB8xhxOz-4" style="edgeStyle=orthogonalEdgeStyle;rounded=0;orthogonalLoop=1;jettySize=auto;html=1;entryX=0;entryY=0.5;entryDx=0;entryDy=0;" edge="1" parent="1" source="s9bki_SefsJjPB8xhxOz-5" target="s9bki_SefsJjPB8xhxOz-7">
          <mxGeometry relative="1" as="geometry" />
        </mxCell>
        <mxCell id="s9bki_SefsJjPB8xhxOz-5" value="Open web browser" style="rounded=0;whiteSpace=wrap;html=1;" vertex="1" parent="1">
          <mxGeometry x="280" y="200" width="80" height="40" as="geometry" />
        </mxCell>
        <mxCell id="s9bki_SefsJjPB8xhxOz-6" style="edgeStyle=orthogonalEdgeStyle;rounded=0;orthogonalLoop=1;jettySize=auto;html=1;entryX=0;entryY=0.5;entryDx=0;entryDy=0;" edge="1" parent="1" source="s9bki_SefsJjPB8xhxOz-7" target="s9bki_SefsJjPB8xhxOz-9">
          <mxGeometry relative="1" as="geometry" />
        </mxCell>
        <mxCell id="s9bki_SefsJjPB8xhxOz-7" value="Enter URL" style="rounded=0;whiteSpace=wrap;html=1;" vertex="1" parent="1">
          <mxGeometry x="400" y="200" width="80" height="40" as="geometry" />
        </mxCell>
        <mxCell id="s9bki_SefsJjPB8xhxOz-35" style="edgeStyle=orthogonalEdgeStyle;rounded=0;orthogonalLoop=1;jettySize=auto;html=1;entryX=0.5;entryY=1;entryDx=0;entryDy=0;" edge="1" parent="1" source="s9bki_SefsJjPB8xhxOz-9" target="s9bki_SefsJjPB8xhxOz-28">
          <mxGeometry relative="1" as="geometry" />
        </mxCell>
        <mxCell id="s9bki_SefsJjPB8xhxOz-43" style="edgeStyle=orthogonalEdgeStyle;rounded=0;orthogonalLoop=1;jettySize=auto;html=1;entryX=0;entryY=0.5;entryDx=0;entryDy=0;dashed=1;dashPattern=8 8;" edge="1" parent="1" source="s9bki_SefsJjPB8xhxOz-9" target="s9bki_SefsJjPB8xhxOz-32">
          <mxGeometry relative="1" as="geometry" />
        </mxCell>
        <mxCell id="s9bki_SefsJjPB8xhxOz-9" value="Cinema website" style="rounded=0;whiteSpace=wrap;html=1;" vertex="1" parent="1">
          <mxGeometry x="520" y="140" width="80" height="40" as="geometry" />
        </mxCell>
        <mxCell id="s9bki_SefsJjPB8xhxOz-11" style="edgeStyle=orthogonalEdgeStyle;rounded=0;orthogonalLoop=1;jettySize=auto;html=1;" edge="1" parent="1" target="s9bki_SefsJjPB8xhxOz-15">
          <mxGeometry relative="1" as="geometry">
            <mxPoint x="720" y="260" as="sourcePoint" />
          </mxGeometry>
        </mxCell>
        <mxCell id="s9bki_SefsJjPB8xhxOz-14" style="edgeStyle=orthogonalEdgeStyle;rounded=0;orthogonalLoop=1;jettySize=auto;html=1;entryX=0;entryY=0.5;entryDx=0;entryDy=0;" edge="1" parent="1" target="s9bki_SefsJjPB8xhxOz-17">
          <mxGeometry relative="1" as="geometry">
            <mxPoint x="880" y="260" as="sourcePoint" />
          </mxGeometry>
        </mxCell>
        <mxCell id="s9bki_SefsJjPB8xhxOz-16" style="edgeStyle=orthogonalEdgeStyle;rounded=0;orthogonalLoop=1;jettySize=auto;html=1;entryX=0;entryY=0.5;entryDx=0;entryDy=0;" edge="1" parent="1" target="s9bki_SefsJjPB8xhxOz-19">
          <mxGeometry relative="1" as="geometry">
            <mxPoint x="1000" y="120" as="sourcePoint" />
          </mxGeometry>
        </mxCell>
        <mxCell id="s9bki_SefsJjPB8xhxOz-21" value="" style="endArrow=none;dashed=1;html=1;rounded=0;" edge="1" parent="1">
          <mxGeometry width="50" height="50" relative="1" as="geometry">
            <mxPoint x="40" y="190" as="sourcePoint" />
            <mxPoint x="1200" y="190" as="targetPoint" />
          </mxGeometry>
        </mxCell>
        <mxCell id="s9bki_SefsJjPB8xhxOz-22" value="" style="endArrow=none;dashed=1;html=1;rounded=0;" edge="1" parent="1">
          <mxGeometry width="50" height="50" relative="1" as="geometry">
            <mxPoint x="40" y="250" as="sourcePoint" />
            <mxPoint x="1200" y="250" as="targetPoint" />
          </mxGeometry>
        </mxCell>
        <mxCell id="s9bki_SefsJjPB8xhxOz-24" value="&lt;font size=&quot;1&quot;&gt;&lt;b&gt;Website&lt;/b&gt;&lt;/font&gt;" style="text;html=1;strokeColor=none;fillColor=none;align=left;verticalAlign=middle;whiteSpace=wrap;rounded=0;" vertex="1" parent="1">
          <mxGeometry x="40" y="105" width="120" height="30" as="geometry" />
        </mxCell>
        <mxCell id="s9bki_SefsJjPB8xhxOz-25" value="&lt;font size=&quot;1&quot;&gt;&lt;b&gt;Local computer&lt;br&gt;&lt;/b&gt;&lt;/font&gt;" style="text;html=1;strokeColor=none;fillColor=none;align=left;verticalAlign=middle;whiteSpace=wrap;rounded=0;" vertex="1" parent="1">
          <mxGeometry x="40" y="265" width="120" height="30" as="geometry" />
        </mxCell>
        <mxCell id="s9bki_SefsJjPB8xhxOz-26" value="&lt;font size=&quot;1&quot;&gt;&lt;b&gt;Operating system&lt;br&gt;&lt;/b&gt;&lt;/font&gt;" style="text;html=1;strokeColor=none;fillColor=none;align=left;verticalAlign=middle;whiteSpace=wrap;rounded=0;" vertex="1" parent="1">
          <mxGeometry x="40" y="205" width="120" height="30" as="geometry" />
        </mxCell>
        <mxCell id="s9bki_SefsJjPB8xhxOz-36" style="edgeStyle=orthogonalEdgeStyle;rounded=0;orthogonalLoop=1;jettySize=auto;html=1;entryX=0;entryY=0.5;entryDx=0;entryDy=0;" edge="1" parent="1" source="s9bki_SefsJjPB8xhxOz-28" target="s9bki_SefsJjPB8xhxOz-29">
          <mxGeometry relative="1" as="geometry" />
        </mxCell>
        <mxCell id="s9bki_SefsJjPB8xhxOz-28" value="My profile" style="rounded=0;whiteSpace=wrap;html=1;" vertex="1" parent="1">
          <mxGeometry x="520" y="80" width="80" height="40" as="geometry" />
        </mxCell>
        <mxCell id="s9bki_SefsJjPB8xhxOz-37" style="edgeStyle=orthogonalEdgeStyle;rounded=0;orthogonalLoop=1;jettySize=auto;html=1;entryX=0;entryY=0.5;entryDx=0;entryDy=0;" edge="1" parent="1" source="s9bki_SefsJjPB8xhxOz-29" target="s9bki_SefsJjPB8xhxOz-30">
          <mxGeometry relative="1" as="geometry" />
        </mxCell>
        <mxCell id="s9bki_SefsJjPB8xhxOz-29" value="Create account" style="rounded=0;whiteSpace=wrap;html=1;" vertex="1" parent="1">
          <mxGeometry x="640" y="80" width="80" height="40" as="geometry" />
        </mxCell>
        <mxCell id="s9bki_SefsJjPB8xhxOz-39" style="edgeStyle=orthogonalEdgeStyle;rounded=0;orthogonalLoop=1;jettySize=auto;html=1;entryX=0;entryY=0.5;entryDx=0;entryDy=0;" edge="1" parent="1" source="s9bki_SefsJjPB8xhxOz-30" target="s9bki_SefsJjPB8xhxOz-31">
          <mxGeometry relative="1" as="geometry" />
        </mxCell>
        <mxCell id="s9bki_SefsJjPB8xhxOz-30" value="Enter email" style="rounded=0;whiteSpace=wrap;html=1;" vertex="1" parent="1">
          <mxGeometry x="760" y="80" width="80" height="40" as="geometry" />
        </mxCell>
        <mxCell id="s9bki_SefsJjPB8xhxOz-40" style="edgeStyle=orthogonalEdgeStyle;rounded=0;orthogonalLoop=1;jettySize=auto;html=1;entryX=0;entryY=0.5;entryDx=0;entryDy=0;" edge="1" parent="1" source="s9bki_SefsJjPB8xhxOz-31" target="s9bki_SefsJjPB8xhxOz-33">
          <mxGeometry relative="1" as="geometry" />
        </mxCell>
        <mxCell id="s9bki_SefsJjPB8xhxOz-31" value="Create password" style="rounded=0;whiteSpace=wrap;html=1;" vertex="1" parent="1">
          <mxGeometry x="880" y="80" width="80" height="40" as="geometry" />
        </mxCell>
        <mxCell id="s9bki_SefsJjPB8xhxOz-32" value="Cinema website" style="rounded=0;whiteSpace=wrap;html=1;" vertex="1" parent="1">
          <mxGeometry x="1120" y="140" width="80" height="40" as="geometry" />
        </mxCell>
        <mxCell id="s9bki_SefsJjPB8xhxOz-41" style="edgeStyle=orthogonalEdgeStyle;rounded=0;orthogonalLoop=1;jettySize=auto;html=1;entryX=0;entryY=0.5;entryDx=0;entryDy=0;" edge="1" parent="1" source="s9bki_SefsJjPB8xhxOz-33" target="s9bki_SefsJjPB8xhxOz-34">
          <mxGeometry relative="1" as="geometry" />
        </mxCell>
        <mxCell id="s9bki_SefsJjPB8xhxOz-33" value="Add aditional personal info" style="rounded=0;whiteSpace=wrap;html=1;" vertex="1" parent="1">
          <mxGeometry x="1000" y="80" width="80" height="40" as="geometry" />
        </mxCell>
        <mxCell id="s9bki_SefsJjPB8xhxOz-42" style="edgeStyle=orthogonalEdgeStyle;rounded=0;orthogonalLoop=1;jettySize=auto;html=1;entryX=0.5;entryY=0;entryDx=0;entryDy=0;" edge="1" parent="1" source="s9bki_SefsJjPB8xhxOz-34" target="s9bki_SefsJjPB8xhxOz-32">
          <mxGeometry relative="1" as="geometry" />
        </mxCell>
        <mxCell id="s9bki_SefsJjPB8xhxOz-34" value="Save data" style="rounded=0;whiteSpace=wrap;html=1;" vertex="1" parent="1">
          <mxGeometry x="1120" y="80" width="80" height="40" as="geometry" />
        </mxCell>
      </root>
    </mxGraphModel>
  </diagram>
</mxfile>
